HIERARCHY
ROOT Hips
{
    OFFSET 0.000000 0.000000 0.000000
    CHANNELS 6 Xposition Yposition Zposition Zrotation Xrotation Yrotation
    JOINT Spine
    {
        OFFSET -0.000000 7.979263 0.000000
        CHANNELS 3 Zrotation Xrotation Yrotation
        JOINT Spine1
        {
            OFFSET -0.000000 24.719021 0.000000
            CHANNELS 3 Zrotation Xrotation Yrotation
            JOINT Neck
            {
                OFFSET -0.000000 24.617504 2.237955
                CHANNELS 3 Zrotation Xrotation Yrotation
                JOINT Head
                {
                    OFFSET -0.000000 13.623132 -1.946162
                    CHANNELS 3 Zrotation Xrotation Yrotation
                    End Site
                    {
                        OFFSET -0.000000 24.327021 0.000000
                    }
                }
            }
            JOINT LeftShoulder
            {
                OFFSET 3.885773 23.018444 -0.302444
                CHANNELS 3 Zrotation Xrotation Yrotation
                JOINT LeftArm
                {
                    OFFSET 10.447750 0.000000 0.000000
                    CHANNELS 3 Zrotation Xrotation Yrotation
                    JOINT LeftForeArm
                    {
                        OFFSET 29.090096 0.000000 0.000000
                        CHANNELS 3 Zrotation Xrotation Yrotation
                        JOINT LeftHand
                        {
                            OFFSET 28.893339 0.000000 0.000000
                            CHANNELS 3 Zrotation Xrotation Yrotation
                            End Site
                            {
                                OFFSET 14.596213 0.000000 0.000000
                            }
                        }
                    }
                }
            }
            JOINT RightShoulder
            {
                OFFSET -3.864586 23.018444 -0.302444
                CHANNELS 3 Zrotation Xrotation Yrotation
                JOINT RightArm
                {
                    OFFSET -10.447750 0.000000 0.000000
                    CHANNELS 3 Zrotation Xrotation Yrotation
                    JOINT RightForeArm
                    {
                        OFFSET -29.090096 0.000000 0.000000
                        CHANNELS 3 Zrotation Xrotation Yrotation
                        JOINT RightHand
                        {
                            OFFSET -28.893339 0.000000 0.000000
                            CHANNELS 3 Zrotation Xrotation Yrotation
                            End Site
                            {
                                OFFSET -14.596213 0.000000 0.000000
                            }
                        }
                    }
                }
            }
        }
    }
    JOINT LeftUpLeg
    {
        OFFSET 9.730808 0.000000 0.000000
        CHANNELS 3 Zrotation Xrotation Yrotation
        JOINT LeftLeg
        {
            OFFSET -0.000000 -34.800129 0.000000
            CHANNELS 3 Zrotation Xrotation Yrotation
            JOINT LeftFoot
            {
                OFFSET -0.000000 -44.597416 0.000000
                CHANNELS 3 Zrotation Xrotation Yrotation
                JOINT LeftToeBase
                {
                    OFFSET -0.000000 -6.325025 14.596213
                    CHANNELS 3 Zrotation Xrotation Yrotation
                    End Site
                    {
                        OFFSET -0.000000 0.000000 3.892323
                    }
                }
            }
        }
    }
    JOINT RightUpLeg
    {
        OFFSET -9.730808 0.000000 0.000000
        CHANNELS 3 Zrotation Xrotation Yrotation
        JOINT RightLeg
        {
            OFFSET -0.000000 -34.800129 0.000000
            CHANNELS 3 Zrotation Xrotation Yrotation
            JOINT RightFoot
            {
                OFFSET -0.000000 -44.597416 0.000000
                CHANNELS 3 Zrotation Xrotation Yrotation
                JOINT RightToeBase
                {
                    OFFSET -0.000000 -6.325025 14.596213
                    CHANNELS 3 Zrotation Xrotation Yrotation
                    End Site
                    {
                        OFFSET -0.000000 0.000000 3.892323
                    }
                }
            }
        }
    }
}
MOTION
Frames:    10
Frame Time:    0.008333
10.100700    86.925163    50.978424    -1.066843    3.963832    91.468819    -3.304137    -9.019774    -0.658555    0.059573    -2.664387    -0.396510    0.155175    21.025896    3.607717    -1.057637    -2.175527    3.591155    13.717009    1.902923    -8.638496    -16.820898    7.931939    8.592093    3.485630    -5.524343    3.007994    -8.406288    -5.494554    -1.652834    -13.971509    1.284383    -5.101727    10.792665    0.703797    8.564954    -0.735645    2.820451    -4.747615    8.021280    2.884923    1.355742    -3.031074    4.605924    -4.353415    0.326336    -0.411901    4.612065    -5.015572    2.438491    12.452455    0.000000    0.000000    0.000000    -6.168264    6.875281    -5.008817    3.441904    0.290201    -2.529983    2.991528    -4.930443    -11.928466    0.000000    0.000000    0.000000    
10.110225    86.925117    50.978470    -1.063745    3.964694    91.467133    -3.302763    -9.027151    -0.653957    0.051905    -2.646036    -0.392077    0.123725    20.979660    3.590520    -0.992215    -2.125387    3.582765    13.729372    1.896062    -8.628451    -16.842722    7.959731    8.577367    3.483913    -5.543686    3.012997    -8.433394    -5.516358    -1.615484    -13.965740    1.272704    -5.088129    10.788320    0.728969    8.532062    -0.761892    2.793051    -4.720790    8.057110    2.853424    1.304108    -3.032053    4.615629    -4.341082    0.328526    -0.406478    4.553800    -5.009646    2.423533    12.496254    0.000000    0.000000    0.000000    -6.168680    6.882805    -4.987450    3.443429    0.288286    -2.558465    2.977429    -4.929743    -11.918252    0.000000    0.000000    0.000000    
10.118246    86.922363    50.979805    -1.062038    3.964688    91.473892    -3.290966    -9.024201    -0.658255    0.023511    -2.645490    -0.398022    0.164064    20.964642    3.577698    -1.029484    -2.108975    3.565357    13.745625    1.902973    -8.600829    -16.819334    7.937106    8.535984    3.443398    -5.530631    3.038619    -8.489039    -5.499943    -1.646285    -13.960654    1.266359    -5.106062    10.794887    0.741705    8.562606    -0.759218    2.794303    -4.730065    8.015465    2.854382    1.305937    -3.031239    4.622595    -4.339446    0.331652    -0.410928    4.573226    -4.987931    2.431707    12.458852    0.000000    0.000000    0.000000    -6.156687    6.893633    -5.027402    3.423839    0.281022    -2.547500    2.998510    -4.933483    -11.889402    0.000000    0.000000    0.000000    
10.125205    86.921326    50.980534    -1.062124    3.965539    91.473732    -3.300272    -9.018848    -0.653019    0.036110    -2.656306    -0.392012    0.065437    21.156740    3.529176    -0.886692    -2.396112    3.531256    13.734527    1.902242    -8.617678    -16.769819    7.851337    8.542177    3.366328    -5.503784    3.019079    -8.482177    -5.470136    -1.652379    -13.975297    1.274295    -5.113398    10.802058    0.753387    8.560128    -0.765862    2.802552    -4.734293    8.045630    2.864744    1.335784    -3.032945    4.627162    -4.354372    0.331156    -0.411502    4.595683    -5.000063    2.425514    12.466413    0.000000    0.000000    0.000000    -6.162601    6.898213    -5.000530    3.437160    0.285159    -2.530087    2.998099    -4.942299    -11.938068    0.000000    0.000000    0.000000    
10.131333    86.918320    50.981255    -1.064036    3.966113    91.475121    -3.290188    -9.007943    -0.649658    0.006409    -2.684634    -0.390235    0.104111    21.148376    3.510004    -0.896460    -2.357230    3.511814    13.746353    1.922133    -8.635435    -16.823963    7.918541    8.547390    3.448176    -5.563126    3.042039    -8.553019    -5.530455    -1.663635    -13.945855    1.269800    -5.101363    10.789666    0.790012    8.538902    -0.740833    2.732343    -4.724367    7.581299    2.789450    1.324125    -3.031403    4.628823    -4.355569    0.329889    -0.412338    4.640785    -5.002962    2.418937    12.414611    0.000000    0.000000    0.000000    -6.163572    6.895966    -4.997405    3.435221    0.291941    -2.525987    3.004383    -4.956025    -11.939195    0.000000    0.000000    0.000000    
10.140233    86.919693    50.981045    -1.060327    3.967786    91.477577    -3.290138    -9.004477    -0.648552    0.000226    -2.688853    -0.389528    0.165620    20.928150    3.530422    -0.955797    -2.018250    3.528768    13.746951    1.919870    -8.629516    -16.767469    7.815204    8.534278    3.360373    -5.521642    3.025251    -8.522722    -5.487122    -1.656524    -13.942324    1.276016    -5.106286    10.787473    0.759443    8.547372    -0.759507    2.727549    -4.713900    7.655776    2.781290    1.271225    -3.031912    4.637053    -4.356853    0.327122    -0.410517    4.591569    -4.997993    2.416817    12.467197    0.000000    0.000000    0.000000    -6.161876    6.908504    -5.008747    3.433009    0.286387    -2.530541    2.979261    -4.951424    -11.933530    0.000000    0.000000    0.000000    
10.146358    86.919250    50.981247    -1.064220    3.967144    91.480751    -3.290929    -9.001704    -0.651161    -0.000961    -2.703200    -0.392037    0.081035    21.122250    3.486349    -0.835863    -2.308657    3.496299    13.751176    1.921305    -8.631796    -16.769146    7.767357    8.534542    3.353608    -5.508664    3.029963    -8.539394    -5.474832    -1.643649    -13.942063    1.261439    -5.096806    10.789440    0.783644    8.532783    -0.758027    2.742729    -4.719720    7.664606    2.801669    1.347000    -3.033999    4.641205    -4.361973    0.335656    -0.419855    4.637111    -5.005621    2.428054    12.426742    0.000000    0.000000    0.000000    -6.159123    6.906604    -5.023056    3.432401    0.293877    -2.529404    2.988531    -4.957908    -11.924739    0.000000    0.000000    0.000000    
10.155308    86.918953    50.983215    -1.055976    3.970264    91.478287    -3.299419    -8.986044    -0.648494    0.004484    -2.720241    -0.389202    0.076327    21.258335    3.439558    -0.818406    -2.517799    3.448864    13.744404    1.937608    -8.633234    -16.763197    7.725153    8.527322    3.354731    -5.497343    3.031876    -8.540459    -5.463090    -1.650188    -13.953957    1.273309    -5.093320    10.799056    0.780474    8.526383    -0.765432    2.706923    -4.704339    7.744472    2.762575    1.287601    -3.036002    4.659389    -4.359845    0.338711    -0.423517    4.626460    -5.012154    2.420078    12.427356    0.000000    0.000000    0.000000    -6.162207    6.928533    -5.018181    3.435143    0.279327    -2.507349    2.989598    -4.962638    -11.949309    0.000000    0.000000    0.000000    
10.159643    86.918137    50.985466    -1.064231    3.966515    91.480141    -3.291584    -8.991692    -0.648670    -0.002073    -2.719090    -0.390038    0.030636    21.223043    3.430938    -0.746083    -2.489298    3.449723    13.746261    1.919162    -8.614658    -16.836588    7.846914    8.522665    3.447593    -5.539213    3.038820    -8.593727    -5.506669    -1.652588    -13.966079    1.269011    -5.102533    10.808670    0.781036    8.530652    -0.759646    2.695152    -4.695012    7.768361    2.751097    1.283632    -3.029191    4.654921    -4.357988    0.334242    -0.427281    4.622758    -5.012777    2.409623    12.436765    0.000000    0.000000    0.000000    -6.152344    6.923913    -5.033648    3.425633    0.280560    -2.520533    2.980755    -4.956985    -11.918028    0.000000    0.000000    0.000000    
10.168327    86.916496    50.989956    -1.068931    3.972580    91.473701    -3.299966    -8.981602    -0.642457    -0.014636    -2.760654    -0.383743    0.088456    21.273182    3.415931    -0.792755    -2.525688    3.428979    13.768121    1.960905    -8.631469    -16.795937    7.723547    8.519986    3.349728    -5.473757    3.043133    -8.489208    -5.434390    -1.732036    -13.923424    1.288248    -5.101721    10.779055    0.806647    8.534704    -0.763439    2.661794    -4.705939    7.801445    2.718462    1.291856    -3.026272    4.658958    -4.342022    0.322618    -0.430538    4.595617    -5.006704    2.409799    12.448282    0.000000    0.000000    0.000000    -6.163091    6.924906    -4.981963    3.438490    0.279314    -2.502282    2.971733    -4.974273    -11.984327    0.000000    0.000000    0.000000    
